<?xml version="1.0" encoding="UTF-8"?>
<svg version="1.1" xmlns="http://www.w3.org/2000/svg" width="311" height="310">
<path d="M0 0 C0.93840036 -0.00367669 1.87680073 -0.00735338 2.84363747 -0.01114148 C5.99008352 -0.02215997 9.13649654 -0.02601908 12.28295898 -0.02983093 C14.53843795 -0.03609705 16.79391589 -0.04274398 19.0493927 -0.04974365 C26.45927208 -0.07077172 33.86915164 -0.08114602 41.27905273 -0.09111023 C43.83229585 -0.09515849 46.38553885 -0.09927543 48.93878174 -0.10346031 C59.56239534 -0.12032819 70.18600682 -0.1349619 80.80963135 -0.14220905 C83.56424969 -0.14411875 86.31886802 -0.14603911 89.07348633 -0.147995 C89.7580808 -0.14847874 90.44267527 -0.14896248 91.14801502 -0.14946087 C102.22582624 -0.15775248 113.30352918 -0.18307578 124.38129318 -0.21557567 C135.77091551 -0.24871628 147.16046359 -0.26633192 158.55014133 -0.26985329 C164.93837659 -0.27220033 171.32644067 -0.2811158 177.71463013 -0.30631447 C183.72946537 -0.32965693 189.74401748 -0.33380344 195.75888634 -0.32355309 C197.95941804 -0.32305909 200.15996398 -0.32933892 202.36045265 -0.34310913 C217.2740031 -0.43116883 231.07512546 -0.48979682 242.71655273 10.14717102 C243.31983398 10.64861633 243.92311523 11.15006165 244.54467773 11.66670227 C250.96154356 17.40003239 256.28155765 26.40151361 256.8453539 35.14454657 C256.84714247 35.85397687 256.84893104 36.56340717 256.85077381 37.29433537 C256.85523166 38.11759723 256.8596895 38.94085909 256.86428243 39.78906828 C256.86400589 41.13773195 256.86400589 41.13773195 256.86372375 42.51364136 C256.86740044 43.47301619 256.87107713 44.43239102 256.87486523 45.42083782 C256.88590169 48.64415545 256.88974588 51.86744084 256.89355469 55.09077454 C256.89981942 57.39861148 256.90646623 59.7064474 256.91346741 62.01428223 C256.93451095 69.60154009 256.94487083 77.18879817 256.95483398 84.77607727 C256.95888158 87.38848824 256.96299851 90.00089911 256.96718407 92.61330986 C256.98405387 103.48137047 256.99868792 114.34942816 257.00593281 125.21749973 C257.00784258 128.03658614 257.00976293 130.85567254 257.01171875 133.67475891 C257.01220249 134.37539658 257.01268623 135.07603424 257.01318463 135.79790335 C257.02147881 147.13902236 257.04680577 158.48003569 257.07929943 169.82110859 C257.11241631 181.47511025 257.13005337 193.12905284 257.13357705 204.7831015 C257.1359264 211.32219277 257.14487215 217.86111701 257.17003822 224.40016365 C257.19334381 230.55533023 257.19754193 236.7102201 257.18727684 242.86541939 C257.18678196 245.12000449 257.19308811 247.37460332 257.20683289 249.62914658 C257.30079643 265.96061831 256.33128274 277.90165356 244.75170898 290.24092102 C235.27580806 299.42551939 224.32319541 302.29706503 211.5090332 302.29434204 C210.57879994 302.29801873 209.64856668 302.30169542 208.69014454 302.30548352 C205.5713375 302.31650129 202.45256381 302.320361 199.33374023 302.32417297 C197.09796544 302.33043915 194.86219169 302.33708609 192.62641907 302.34408569 C185.28147098 302.36511316 177.93652272 302.37548803 170.59155273 302.38545227 C168.06059763 302.38950056 165.52964263 302.3936175 162.99868774 302.39780235 C152.46772086 302.41467017 141.93675509 302.42930385 131.40577698 302.43655109 C128.67522175 302.43846079 125.94466653 302.44038115 123.21411133 302.44233704 C122.19619147 302.44306265 122.19619147 302.44306265 121.15770757 302.44380292 C110.17689379 302.45209437 99.19618924 302.47741742 88.21542311 302.50991771 C76.92524871 302.54305952 65.63512761 302.56067408 54.34489822 302.56419533 C48.01255368 302.56654226 41.68038183 302.57545621 35.3480835 302.60065651 C29.38577718 302.62400087 23.42375648 302.62814473 17.46141624 302.61789513 C15.28023514 302.61740118 13.09903968 302.62367966 10.91790199 302.63745117 C-5.44985105 302.73496315 -20.0192572 302.02645395 -32.47094727 290.04170227 C-36.71913284 285.5045776 -40.01706412 280.94776551 -42.28344727 275.14717102 C-42.62406724 274.31338456 -42.96468721 273.4795981 -43.31562901 272.62054539 C-44.55145822 268.18531441 -44.57000735 264.13511851 -44.55760193 259.5536499 C-44.56283861 258.59397735 -44.56807529 257.6343048 -44.57347065 256.64555126 C-44.58846003 253.43307689 -44.58917559 250.22076194 -44.58984375 247.008255 C-44.5974661 244.70336641 -44.60589373 242.39848036 -44.61506653 240.09359741 C-44.6370148 233.83294402 -44.64581126 227.57233947 -44.65089297 221.31165195 C-44.65453709 217.39748033 -44.66077755 213.48332149 -44.66789436 209.56915474 C-44.68735011 198.71817285 -44.70386264 187.867204 -44.7067709 177.01620388 C-44.70695847 176.32232866 -44.70714604 175.62845344 -44.70733929 174.91355169 C-44.70770553 173.50706518 -44.70806923 172.10057866 -44.7084304 170.69409215 C-44.70861321 169.99596902 -44.70879602 169.29784588 -44.70898438 168.5785675 C-44.70916492 167.87958546 -44.70934547 167.18060342 -44.70953149 166.46044011 C-44.71306949 155.14663046 -44.74006962 143.83301158 -44.77748226 132.51926803 C-44.81564301 120.8855243 -44.8344887 109.25188417 -44.83523041 97.61807686 C-44.83602223 91.09345283 -44.84471721 84.56907483 -44.87322807 78.04450798 C-44.89946686 71.90238296 -44.90158102 65.7607069 -44.88557243 59.61855125 C-44.88376242 57.37125415 -44.89040793 55.1239309 -44.90639114 52.87668991 C-45.01260667 36.96534668 -44.4227324 24.31731163 -32.68188477 12.30342102 C-22.81148415 3.42970581 -13.10569373 -0.00276018 0 0 Z " fill="#FC5D0D" transform="translate(49.283447265625,3.8528289794921875)"/>
<path d="M0 0 C7.36524545 5.9646414 11.2002446 12.96996807 12.5078125 22.3046875 C12.58475397 24.32171219 12.61587321 26.34091015 12.60546875 28.359375 C12.60063477 30.02226563 12.60063477 30.02226563 12.59570312 31.71875 C12.58313477 33.43191406 12.58313477 33.43191406 12.5703125 35.1796875 C12.56580078 36.345 12.56128906 37.5103125 12.55664062 38.7109375 C12.54490044 41.57554301 12.52696636 44.44012196 12.5078125 47.3046875 C4.9178125 47.3046875 -2.6721875 47.3046875 -10.4921875 47.3046875 C-10.54117188 45.63019531 -10.59015625 43.95570312 -10.640625 42.23046875 C-10.71566988 40.02602541 -10.79121697 37.82159913 -10.8671875 35.6171875 C-10.898125 34.51439453 -10.9290625 33.41160156 -10.9609375 32.27539062 C-11.01894531 30.6753418 -11.01894531 30.6753418 -11.078125 29.04296875 C-11.1095459 28.06368408 -11.1409668 27.08439941 -11.17333984 26.07543945 C-11.50985175 23.15118708 -12.18752105 20.93778962 -13.4921875 18.3046875 C-15.28982313 17.39590668 -15.28982313 17.39590668 -17.4921875 17.3046875 C-18.36875 17.21445313 -19.2453125 17.12421875 -20.1484375 17.03125 C-26.18502199 16.63605602 -26.18502199 16.63605602 -31.1171875 19.6796875 C-33.54715263 24.31871183 -33.64659295 27.87572568 -33.65332031 33.06542969 C-33.65828522 33.97291962 -33.66325012 34.88040955 -33.66836548 35.81539917 C-33.68300919 38.82746125 -33.68979345 41.83947062 -33.6953125 44.8515625 C-33.70106298 46.94183352 -33.70682072 49.03210451 -33.71258545 51.12237549 C-33.7231023 55.51062262 -33.72894021 59.8988514 -33.73242188 64.28710938 C-33.73790219 69.90727564 -33.76191755 75.5271991 -33.79039383 81.14728928 C-33.8090298 85.4675975 -33.81422637 89.78784742 -33.81575775 94.10819244 C-33.8187836 96.17981542 -33.82680984 98.25143738 -33.83994293 100.32302094 C-33.85702015 103.22432323 -33.85511877 106.12503485 -33.84863281 109.02636719 C-33.8578476 109.88062286 -33.86706238 110.73487854 -33.8765564 111.61502075 C-33.84186596 116.57512549 -33.2889682 120.03012245 -30.4921875 124.3046875 C-27.26471695 126.45633453 -26.28713111 126.57713829 -22.5546875 126.5546875 C-21.70003906 126.55984375 -20.84539062 126.565 -19.96484375 126.5703125 C-17.27802557 126.28168116 -15.72170245 125.82634349 -13.4921875 124.3046875 C-11.20760344 120.82419833 -11.18593723 117.66717721 -11.078125 113.5703125 C-11.03945312 112.27480469 -11.00078125 110.97929687 -10.9609375 109.64453125 C-10.92948483 108.28125466 -10.89823743 106.91797332 -10.8671875 105.5546875 C-10.82898281 104.17575722 -10.78992963 102.79685016 -10.75 101.41796875 C-10.65570992 98.04709828 -10.5728591 94.67591138 -10.4921875 91.3046875 C-2.9021875 91.3046875 4.6878125 91.3046875 12.5078125 91.3046875 C12.55400084 95.43084632 12.59374144 99.55633698 12.61767578 103.68261719 C12.62766498 105.08303892 12.64126104 106.48344018 12.65869141 107.88378906 C12.80719682 120.13111748 12.14906164 130.63706349 3.7890625 140.2890625 C-4.05487859 147.81153059 -12.55533597 149.63649716 -23.1171875 149.7421875 C-24.29825073 149.7575354 -24.29825073 149.7575354 -25.50317383 149.77319336 C-34.44007765 149.63989021 -42.44172581 147.03870422 -49.05078125 140.84375 C-56.95318913 132.4486733 -58.6389146 122.20855327 -58.65332031 111.11499023 C-58.65828522 110.19719284 -58.66325012 109.27939545 -58.66836548 108.33378601 C-58.68295047 105.30194339 -58.68978448 102.27015317 -58.6953125 99.23828125 C-58.70106877 97.12183125 -58.70682644 95.00538126 -58.71258545 92.88893127 C-58.72308628 88.44963336 -58.72893436 84.0103535 -58.73242188 79.57104492 C-58.7378921 73.90783745 -58.76189262 68.24487216 -58.79039383 62.58174038 C-58.80910663 58.20715155 -58.81423049 53.83261992 -58.81575775 49.45799446 C-58.81876741 47.37179306 -58.82673828 45.28559225 -58.83994293 43.19943047 C-59.01102426 14.08274258 -59.01102426 14.08274258 -49.4921875 3.3046875 C-36.66495282 -8.39073236 -14.40188747 -9.79689524 0 0 Z " fill="#FEFDFC" transform="translate(178.4921875,51.6953125)"/>
<path d="M0 0 C23.43 0 46.86 0 71 0 C71 13.2 71 26.4 71 40 C47.57 40 24.14 40 0 40 C0 26.8 0 13.6 0 0 Z " fill="#FFFFFF" transform="translate(120,224)"/>
</svg>
